#!OML:ASF F:\VICON\USERDATA\INSTALL\rory3\rory3.ASF
:FULLY-SPECIFIED
:DEGREES
302
root 0.564533 17.6932 1.54474 -2.14308 3.81067 -2.18789
lowerback 15.1727 1.1521 -1.05328
upperback 2.50687 1.56236 3.11523
thorax -5.95933 0.817077 3.59067
lowerneck -11.9731 -5.38709 -11.4132
upperneck 29.8131 -7.02308 6.88529
head 12.5285 -3.55454 3.58328
rclavicle 3.27001e-014 3.65764e-014
rhumerus -43.9786 7.00787 -75.6235
rradius 43.6009
rwrist -2.2127
rhand -19.3452 21.2141
rfingers 7.12502
rthumb 6.97195 -8.65112
lclavicle 3.27001e-014 3.65764e-014
lhumerus -40.5834 0.285839 79.6961
lradius 45.6334
lwrist 10.1002
lhand -23.5998 24.2313
lfingers 7.12502
lthumb 2.86386 54.1918
rfemur -26.2773 -3.29253 22.4608
rtibia 31.137
rfoot 11.5641 0.0360497
rtoes 18.165
lfemur -26.7126 -4.53982 -18.144
ltibia 24.5832
lfoot 16.2774 -3.17603
ltoes -3.28891
303
root 0.563538 17.3908 1.71872 -2.83915 3.97722 -2.46927
lowerback 15.567 1.13998 -0.801896
upperback 2.63215 1.5922 3.18803
thorax -6.03947 0.82667 3.51632
lowerneck -12.167 -5.37936 -11.3455
upperneck 29.547 -6.97522 6.82934
head 12.4496 -3.52603 3.54748
rclavicle 9.44227e-015 2.46493e-014
rhumerus -43.8526 7.54639 -75.8222
rradius 43.3288
rwrist -1.37415
rhand -18.377 20.5662
rfingers 7.12502
rthumb 7.90649 -9.26594
lclavicle 9.44227e-015 2.46493e-014
lhumerus -40.3059 0.597948 79.8719
lradius 45.6317
lwrist 9.87212
lhand -23.7617 23.2521
lfingers 7.12502
lthumb 2.70748 53.2147
rfemur -26.6447 -3.87548 22.9392
rtibia 34.8211
rfoot 5.48369 1.33913
rtoes 6.82866
lfemur -27.7006 -3.87197 -18.3687
ltibia 28.5791
lfoot 8.11239 -5.29863
ltoes -6.35057
304
root 0.55708 17.1253 1.85972 -3.59894 4.12984 -2.66296
lowerback 16.0648 1.14976 -0.741779
upperback 2.88594 1.62121 3.3001
thorax -6.04431 0.838092 3.59272
lowerneck -12.4823 -5.33558 -11.1817
upperneck 29.0552 -6.8375 6.65409
head 12.2862 -3.45681 3.456
rclavicle 1.5704e-014 1.98785e-014
rhumerus -43.2959 8.06478 -75.9586
rradius 42.8181
rwrist -1.12803
rhand -17.2888 20.0475
rfingers 7.12502
rthumb 8.95667 -9.74234
lclavicle 1.5704e-014 1.98785e-014
lhumerus -39.7007 1.18442 80.079
lradius 45.5981
lwrist 9.12152
lhand -23.3885 23.5329
lfingers 7.12502
lthumb 3.06787 53.4906
rfemur -27.2567 -3.93327 23.2333
rtibia 38.9049
rfoot 0.911128 1.00403
rtoes 3.66823
lfemur -28.7146 -3.12294 -18.7414
ltibia 33.0766
lfoot 4.61356 -6.31309
ltoes -6.16596
305
root 0.548129 16.8689 1.98509 -4.21725 4.29633 -2.86031
lowerback 16.7762 1.17056 -0.671389
upperback 2.91035 1.67468 3.39864
thorax -6.41071 0.86672 3.64284
lowerneck -12.7286 -5.31249 -11.0742
upperneck 28.7377 -6.76528 6.57909
head 12.1939 -3.41424 3.40867
rclavicle -9.14409e-015 -8.74653e-015
rhumerus -42.8726 8.37112 -76.0949
rradius 41.983
rwrist -0.0387395
rhand -17.8603 21.1358
rfingers 7.12502
rthumb 8.40512 -8.67696
lclavicle -9.14409e-015 -8.74653e-015
lhumerus -39.4745 1.7111 80.3254
lradius 45.8152
lwrist 8.40109
lhand -23.216 24.6265
lfingers 7.12502
lthumb 3.23451 54.5817
rfemur -28.3067 -3.73024 23.4739
rtibia 43.0746
rfoot -2.9074 0.0645559
rtoes 4.39058
lfemur -30.0257 -2.75415 -19.0139
ltibia 37.6702
lfoot 1.06011 -5.02733
ltoes -1.18333
306
root 0.542712 16.6269 2.1097 -4.58955 4.40629 -2.70844
lowerback 17.4653 1.20959 -0.889177
upperback 2.80505 1.69412 3.37428
thorax -6.90584 0.886504 3.73394
lowerneck -13.1634 -5.29002 -11.2009
upperneck 28.624 -6.7054 6.77257
head 12.2444 -3.36865 3.50435
rclavicle -5.36719e-015 -2.14687e-014
rhumerus -42.5006 8.43931 -76.2099
rradius 41.2385
rwrist 0.925265
rhand -18.5122 22.3566
rfingers 7.12502
rthumb 7.77595 -7.48037
lclavicle -5.36719e-015 -2.14687e-014
lhumerus -39.3702 2.33742 80.5768
lradius 45.8411
lwrist 8.41397
lhand -24.0287 23.7633
lfingers 7.12502
lthumb 2.44968 53.729
rfemur -29.6836 -3.629 23.4012
rtibia 47.0539
rfoot -5.83635 -0.905975
rtoes 3.54583
lfemur -31.6659 -2.76533 -19.5256
ltibia 42.0581
lfoot -2.05787 -3.28446
ltoes -2.88004
307
root 0.528402 16.4225 2.23203 -4.55439 4.39335 -2.24762
lowerback 17.6493 1.32404 -1.65072
upperback 2.79763 1.70252 3.36199
thorax -7.03557 0.910825 4.15515
lowerneck -13.8976 -5.29359 -11.402
upperneck 28.3816 -6.59389 6.87959
head 12.3002 -3.31108 3.57994
rclavicle -5.56597e-015 -8.74653e-015
rhumerus -41.6321 8.19147 -76.1126
rradius 40.7239
rwrist 0.888698
rhand -17.0456 21.4845
rfingers 7.12502
rthumb 9.19132 -8.29522
lclavicle -5.56597e-015 -8.74653e-015
lhumerus -38.5904 3.56234 80.7754
lradius 45.4369
lwrist 7.76207
lhand -24.121 24.1143
lfingers 7.12502
lthumb 2.36049 54.081
rfemur -31.3479 -3.49343 23.1871
rtibia 50.6902
rfoot -7.70094 -2.30308
rtoes 4.07894
lfemur -33.5342 -2.97238 -20.1604
ltibia 45.9971
lfoot -4.25396 -1.66417
ltoes -3.3363
308
root 0.507562 16.2587 2.3622 -4.32762 4.2511 -1.73579
lowerback 17.4281 1.47887 -2.58829
upperback 2.82084 1.7289 3.31529
thorax -6.91734 0.944044 4.63852
lowerneck -14.5048 -5.32474 -11.2779
upperneck 28.0662 -6.5252 6.67412
head 12.2794 -3.27773 3.47307
rclavicle 9.93923e-017 -1.98785e-014
rhumerus -40.5009 7.69544 -76.0657
rradius 39.4653
rwrist 1.37236
rhand -15.6287 19.9489
rfingers 7.12502
rthumb 10.5584 -9.76588
lclavicle 9.93923e-017 -1.98785e-014
lhumerus -37.4554 5.2923 80.7199
lradius 44.3932
lwrist 6.3816
lhand -23.2001 25.2253
lfingers 7.12502
lthumb 3.24982 55.1803
rfemur -32.9304 -3.25429 23.025
rtibia 53.9259
rfoot -8.91189 -4.25175
rtoes 5.03541
lfemur -35.2125 -3.21908 -20.6726
ltibia 49.466
lfoot -5.72011 -0.277793
ltoes -1.11978
309
root 0.506406 16.1094 2.50605 -4.40744 3.88151 -1.54392
lowerback 17.4213 1.62035 -2.83301
upperback 2.81494 1.86018 3.19259
thorax -6.9365 1.01246 4.61515
lowerneck -14.779 -5.31895 -10.9574
upperneck 27.9342 -6.49327 6.42356
head 12.2566 -3.25427 3.31966
rclavicle 2.6339e-014 2.62396e-014
rhumerus -39.5098 6.80593 -76.0698
rradius 37.9956
rwrist 1.85848
rhand -14.8741 18.3589
rfingers 7.12502
rthumb 11.2861 -11.3175
lclavicle 2.6339e-014 2.62396e-014
lhumerus -36.3387 7.07569 80.5149
lradius 42.3804
lwrist 5.73691
lhand -23.4976 23.6874
lfingers 7.12502
lthumb 2.96258 53.6466
rfemur -33.8202 -2.96512 23.1432
rtibia 56.6141
rfoot -10.2759 -5.70696
rtoes 4.16008
lfemur -36.3509 -3.2908 -20.8116
ltibia 52.6157
lfoot -6.90235 0.468106
ltoes 1.57679
